<svg width="75" height="40" viewBox="0 0 75 40" fill="none" xmlns="http://www.w3.org/2000/svg">
<path d="M4.84718 31.6471H1.06777C0.445275 31.6471 0.134033 31.3365 0.134033 30.7153V4.04909C0.134033 3.42791 0.445275 3.11732 1.06777 3.11732H11.9169C14.229 3.11732 16.0224 3.75329 17.297 5.02522C18.5716 6.26758 19.209 8.04237 19.209 10.3496V14.6091C19.209 16.9163 18.5716 18.7059 17.297 19.9778C16.0224 21.2202 14.229 21.8414 11.9169 21.8414H6.31448C5.95877 21.8414 5.78092 22.004 5.78092 22.3294V30.7153C5.78092 31.3365 5.46967 31.6471 4.84718 31.6471ZM6.27002 16.9163H10.9832C11.9317 16.9163 12.5987 16.724 12.984 16.3395C13.3694 15.9254 13.5621 15.2598 13.5621 14.3429V10.6158C13.5621 9.66926 13.3694 9.00371 12.984 8.61917C12.5987 8.20505 11.9317 7.99799 10.9832 7.99799H6.27002C5.94395 7.99799 5.78092 8.16068 5.78092 8.48606V16.4282C5.78092 16.7536 5.94395 16.9163 6.27002 16.9163Z" fill="#E61C44"/>
<path d="M28.2028 31.6471H24.4234C23.8009 31.6471 23.4896 31.3365 23.4896 30.7153V1.3869C23.4896 0.765727 23.8009 0.455139 24.4234 0.455139H28.2028C28.8253 0.455139 29.1365 0.765727 29.1365 1.3869V30.7153C29.1365 31.3365 28.8253 31.6471 28.2028 31.6471Z" fill="#E61C44"/>
<path d="M42.212 31.6471H41.1448C38.8031 31.6471 36.9949 31.0259 35.7203 29.7835C34.4456 28.5412 33.8083 26.7516 33.8083 24.4148V16.2508C33.8083 13.914 34.4456 12.1244 35.7203 10.882C36.9949 9.63968 38.8031 9.0185 41.1448 9.0185H51.416C52.0681 9.0185 52.3942 9.32909 52.3942 9.95026V30.7153C52.3942 31.3365 52.0681 31.6471 51.416 31.6471H47.681C47.0585 31.6471 46.7473 31.3365 46.7473 30.7153V29.2511H46.5694C46.2433 30.0498 45.6653 30.6561 44.8353 31.0703C44.0053 31.4548 43.1309 31.6471 42.212 31.6471ZM46.7473 23.3943V14.3872C46.7473 14.0619 46.5694 13.8992 46.2137 13.8992H42.0341C41.0856 13.8992 40.4186 14.1062 40.0332 14.5204C39.6479 14.9049 39.4552 15.5704 39.4552 16.517V24.1486C39.4552 25.0951 39.6479 25.7755 40.0332 26.1896C40.4186 26.5741 41.0856 26.7664 42.0341 26.7664H43.6793C45.7246 26.7664 46.7473 25.6424 46.7473 23.3943Z" fill="#E61C44"/>
<path d="M60.9569 39.1456H58.1112C57.5183 39.1456 57.2219 38.8202 57.2219 38.1694V35.1967C57.2219 34.5459 57.5183 34.2205 58.1112 34.2205H59.0449C60.9124 34.2205 62.1722 33.9543 62.8244 33.4219C63.5061 32.919 64.0249 31.9281 64.3806 30.4491H62.024C61.4608 30.4491 61.0903 30.1385 60.9124 29.5173L55.7102 9.95026C55.5323 9.32909 55.7546 9.0185 56.3771 9.0185H60.3344C60.9272 9.0185 61.2978 9.32909 61.446 9.95026L65.2699 26.3227H65.4477L69.2271 9.95026C69.3457 9.32909 69.7162 9.0185 70.3387 9.0185H74.0737C74.8147 9.0185 75.1112 9.34388 74.9629 9.99463L69.5384 31.6471C68.8862 34.1022 67.8784 35.9657 66.5148 37.2377C65.1513 38.5096 63.2986 39.1456 60.9569 39.1456Z" fill="#E61C44"/>
</svg>
