<svg width="101" height="29" viewBox="0 0 101 29" fill="none" xmlns="http://www.w3.org/2000/svg">
<path d="M12.0497 28.647H7.33651C4.99475 28.647 3.18656 28.0259 1.91194 26.7835C0.637313 25.5411 0 23.7516 0 21.4148V7.34955C0 5.01274 0.637313 3.22316 1.91194 1.98081C3.18656 0.738455 4.99475 0.117279 7.33651 0.117279H12.0497C14.3618 0.117279 16.1551 0.753245 17.4298 2.02518C18.7044 3.26753 19.3417 5.04232 19.3417 7.34955V8.68064C19.3417 9.3314 19.0305 9.65677 18.408 9.65677H14.6286C14.0061 9.65677 13.6948 9.3314 13.6948 8.68064V7.61576C13.6948 6.66921 13.5021 6.00366 13.1168 5.61913C12.7314 5.20501 12.0645 4.99795 11.1159 4.99795H8.22578C7.30687 4.99795 6.63991 5.20501 6.22492 5.61913C5.83956 6.00366 5.64689 6.66921 5.64689 7.61576V21.1485C5.64689 22.0951 5.83956 22.7754 6.22492 23.1895C6.63991 23.5741 7.30687 23.7664 8.22578 23.7664H11.1159C12.0645 23.7664 12.7314 23.5741 13.1168 23.1895C13.5021 22.7754 13.6948 22.0951 13.6948 21.1485V18.3532C13.6948 18.0279 13.5318 17.8652 13.2057 17.8652H10.5379C9.9154 17.8652 9.60416 17.5546 9.60416 16.9334V13.9163C9.60416 13.2951 9.9154 12.9845 10.5379 12.9845H18.319C19.0008 12.9845 19.3417 13.3247 19.3417 14.005V21.4148C19.3417 23.722 18.7044 25.5116 17.4298 26.7835C16.1551 28.0259 14.3618 28.647 12.0497 28.647Z" fill="#DDE3F0"/>
<path d="M32.1882 28.647H31.1211C28.7794 28.647 26.9712 28.0259 25.6965 26.7835C24.4219 25.5411 23.7846 23.7516 23.7846 21.4148V13.2507C23.7846 10.9139 24.4219 9.12434 25.6965 7.88198C26.9712 6.63963 28.7794 6.01845 31.1211 6.01845H41.3922C42.0443 6.01845 42.3704 6.32904 42.3704 6.95022V27.7153C42.3704 28.3364 42.0443 28.647 41.3922 28.647H37.6573C37.0348 28.647 36.7235 28.3364 36.7235 27.7153V26.2511H36.5457C36.2196 27.0497 35.6416 27.6561 34.8116 28.0702C33.9816 28.4548 33.1071 28.647 32.1882 28.647ZM36.7235 20.3943V11.3872C36.7235 11.0618 36.5457 10.8991 36.19 10.8991H32.0104C31.0618 10.8991 30.3949 11.1062 30.0095 11.5203C29.6242 11.9048 29.4315 12.5704 29.4315 13.5169V21.1485C29.4315 22.0951 29.6242 22.7754 30.0095 23.1895C30.3949 23.5741 31.0618 23.7664 32.0104 23.7664H33.6555C35.7009 23.7664 36.7235 22.6423 36.7235 20.3943Z" fill="#DDE3F0"/>
<path d="M51.9558 28.647H48.1764C47.5539 28.647 47.2427 28.3364 47.2427 27.7153V6.95022C47.2427 6.32904 47.5539 6.01845 48.1764 6.01845H51.9558C52.5783 6.01845 52.8896 6.32904 52.8896 6.95022V8.41442H53.0674C53.4231 7.7045 54.016 7.1277 54.846 6.684C55.7056 6.2403 56.6838 6.01845 57.7806 6.01845H59.0255C61.6044 6.01845 63.4571 6.96501 64.5835 8.85812C65.5913 6.96501 67.3254 6.01845 69.7858 6.01845H71.0752C73.3577 6.01845 75.0769 6.63963 76.233 7.88198C77.4187 9.12434 78.0115 10.9139 78.0115 13.2507V27.7153C78.0115 28.3364 77.7003 28.647 77.0778 28.647H73.2984C72.6759 28.647 72.3646 28.3364 72.3646 27.7153V13.5169C72.3646 12.5704 72.172 11.9048 71.7866 11.5203C71.4013 11.1062 70.7343 10.8991 69.7858 10.8991H68.6742C66.6288 10.8991 65.6062 12.038 65.6062 14.3156V27.7153C65.6062 28.3364 65.2801 28.647 64.628 28.647H60.893C60.2705 28.647 59.9593 28.3364 59.9593 27.7153V13.5169C59.9593 12.5704 59.7518 11.9048 59.3368 11.5203C58.9514 11.1062 58.2845 10.8991 57.3359 10.8991H55.9575C53.9122 10.8991 52.8896 12.0232 52.8896 14.2712V27.7153C52.8896 28.3364 52.5783 28.647 51.9558 28.647Z" fill="#DDE3F0"/>
<path d="M99.4364 28.647H89.6099C87.2682 28.647 85.46 28.0259 84.1854 26.7835C82.9108 25.5411 82.2734 23.7516 82.2734 21.4148V13.2507C82.2734 10.9139 82.9108 9.12434 84.1854 7.88198C85.46 6.63963 87.2682 6.01845 89.6099 6.01845H93.1226C95.4643 6.01845 97.2725 6.63963 98.5471 7.88198C99.8218 9.12434 100.459 10.9139 100.459 13.2507V18.8857C100.459 19.5069 100.148 19.8174 99.5254 19.8174H88.365C88.0093 19.8174 87.8314 19.9801 87.8314 20.3055V21.2816C87.8314 22.1986 88.0241 22.8642 88.4094 23.2783C88.8244 23.6628 89.5062 23.8551 90.4548 23.8551H99.4364C100.059 23.8551 100.37 24.1805 100.37 24.8312V27.7596C100.37 28.085 100.296 28.3216 100.148 28.4695C100.029 28.5879 99.7921 28.647 99.4364 28.647ZM88.365 16.046H94.412C94.7381 16.046 94.9011 15.8833 94.9011 15.558V13.4282C94.9011 12.4816 94.7085 11.8161 94.3231 11.4316C93.9378 11.047 93.2708 10.8548 92.3222 10.8548H90.4548C89.5062 10.8548 88.8392 11.047 88.4539 11.4316C88.0686 11.8161 87.8759 12.4816 87.8759 13.4282V15.558C87.8759 15.8833 88.0389 16.046 88.365 16.046Z" fill="#DDE3F0"/>
</svg>
